<svg version="1.1" id="Layer_1" xmlns="http://www.w3.org/2000/svg" xmlns:xlink="http://www.w3.org/1999/xlink" x="0px" y="0px" width="32px" height="32px" viewBox="0 0 32 32" enable-background="new 0 0 32 32" xml:space="preserve">
  <g id="icon">
    <path d="M1.9806,30.2318c-0.1688,0,-0.3339,-0.0689,-0.453,-0.1892c-0.1198,-0.121,-0.1849,-0.2817,-0.1833,-0.4525c0.0036,-0.374,0.0132,-0.7518,0.0234,-1.1519c0.0147,-0.5761,0.0299,-1.1718,0.0313,-1.8813c0.0006,-0.2601,0.1642,-0.4977,0.4071,-0.5915c2.0612,-0.7949,2.8269,-2.7427,3.1064,-4.2367c0.057,-0.3051,0.3132,-0.5182,0.623,-0.5182c0.1856,0,0.3612,0.0783,0.4817,0.215c0.1198,0.1358,0.1729,0.3121,0.1497,0.4964c-0.0229,0.181,-0.0639,0.3493,-0.1219,0.5002c-0.0344,0.0895,-0.0836,0.3913,-0.1312,0.6832c-0.2661,1.6325,-0.8198,5.0296,-3.5623,7.0064C2.2425,30.1903,2.1142,30.2318,1.9806,30.2318C1.9806,30.2318,1.9806,30.2318,1.9806,30.2318zM25.2757,16.0184c0,5.1077,-4.1406,9.2483,-9.2483,9.2483s-9.2483,-4.1406,-9.2483,-9.2483c0,-5.1077,4.1406,-9.2482,9.2483,-9.2482S25.2757,10.9108,25.2757,16.0184zM20.1434,16.0184c0,-2.2732,-1.8428,-4.116,-4.116,-4.116c-2.2732,0,-4.116,1.8428,-4.116,4.116c0,2.2732,1.8428,4.116,4.116,4.116C18.3006,20.1344,20.1434,18.2916,20.1434,16.0184z" fill-rule="evenodd" fill="#217346"/>
    <path d="M16.0274,2.4667c-7.4844,0,-13.5517,6.0673,-13.5517,13.5517c0,7.4844,6.0673,13.5518,13.5517,13.5518s13.5517,-6.0673,13.5517,-13.5518C29.5791,8.534,23.5118,2.4667,16.0274,2.4667zM13.3895,4.8854c1.9645,-0.4827,3.2753,-0.6032,5.2553,-0.0403c1.271,0.483,2.0962,1.0726,1.1678,3.3163c-1.0917,2.47,-2.0216,2.6831,-2.4993,2.411c-0.4777,-0.2721,-1.9399,-0.2422,-2.7071,-0.0074c-0.7673,0.2348,-1.4407,-0.1019,-2.4102,-2.4171C11.3137,5.9177,12.3549,5.2191,13.3895,4.8854zM4.6193,15.1504c0.1304,-2.0187,0.4096,-3.3051,1.5419,-5.0242c0.8429,-1.0669,1.6533,-1.6766,3.5139,-0.1165c2.0274,1.7839,1.9511,2.7348,1.5479,3.1086c-0.4032,0.3738,-0.8143,1.7773,-0.8211,2.5796c-0.0068,0.8024,-0.5304,1.3433,-3.03,1.5719C4.9797,17.4406,4.6265,16.2375,4.6193,15.1504zM14.5915,24.6092c-0.5565,2.3328,-1.8101,2.308,-2.849,1.9879c-1.8861,-0.7314,-3.029,-1.3845,-4.328,-2.9814c-0.7641,-1.1247,-1.1019,-2.081,0.9456,-3.3863c2.311,-1.3972,3.195,-1.0384,3.4302,-0.5415c0.2352,0.4969,1.4501,1.311,2.2133,1.5588C14.7667,21.4945,15.1251,22.1566,14.5915,24.6092zM13.7078,16.0184c0,-1.2811,1.0385,-2.3196,2.3196,-2.3196c1.2811,0,2.3196,1.0385,2.3196,2.3196c0,1.2811,-1.0385,2.3196,-2.3196,2.3196C14.7463,18.338,13.7078,17.2995,13.7078,16.0184zM24.4318,23.5445c-1.3323,1.5222,-2.337,2.3728,-4.2818,3.0473c-1.3182,0.3334,-2.3323,0.3237,-2.8587,-2.0467c-0.5225,-2.6495,0.117,-3.3574,0.6644,-3.4085c0.5474,-0.0511,1.7279,-0.9143,2.2218,-1.5467c0.4938,-0.6324,1.2386,-0.7428,3.3607,0.5975C25.5401,21.5082,25.088,22.6777,24.4318,23.5445zM24.5971,17.2872c-2.684,-0.2984,-3.1669,-1.1212,-3.051,-1.6586c0.1159,-0.5374,-0.3524,-1.9229,-0.807,-2.5841c-0.4546,-0.6612,-0.336,-1.4046,1.5804,-3.0255c1.8617,-1.512,2.8411,-0.7291,3.4704,0.1573c1.0511,1.7284,1.5602,2.9423,1.6187,5C27.3302,16.5337,27.016,17.498,24.5971,17.2872z" fill="#FFFFFF" stroke="#6D6E71" stroke-width="1" stroke-linecap="round" stroke-miterlimit="10"/>
  </g>
</svg>