<svg version="1.1" id="Layer_1" xmlns="http://www.w3.org/2000/svg" xmlns:xlink="http://www.w3.org/1999/xlink" x="0px" y="0px" width="32px" height="32px" viewBox="0 0 32 32" enable-background="new 0 0 32 32" xml:space="preserve">
  <g id="icon">
    <path d="M30.1333,9h-3.854L25,10.2745V12h-1.732l-1.0038,1h5.9024c0.4602,0,0.8333,0.3731,0.8333,0.8333v12.3333c0,0.4602,-0.3731,0.8333,-0.8333,0.8333H17.8333c-0.4602,0,-0.8333,-0.3731,-0.8333,-0.8333v-7.9223l-0.0373,0.0371c-0.1609,0.1604,-0.362,0.2666,-0.5806,0.309c-0.0843,0.2955,-0.2875,0.5483,-0.5627,0.6926L15,19.7127v6.454c0,0.4602,-0.3731,0.8333,-0.8333,0.8333H3.8333c-0.4602,0,-0.8333,-0.3731,-0.8333,-0.8333V13.8333c0,-0.4602,0.3731,-0.8333,0.8333,-0.8333h9.9848L15,11.8226V10h1.8295l1.0038,-1H1.8667C1.388,9,1,9.388,1,9.8667v20.2667c0,0.4786,0.388,0.8667,0.8667,0.8667h28.2667c0.4786,0,0.8667,-0.388,0.8667,-0.8667V9.8667C31,9.388,30.612,9,30.1333,9zM11,10h2v2h-2V10zM7,10h2v2H7V10zM3,10h2v2H3V10zM5,30H3v-2h2V30zM9,30H7v-2h2V30zM13,30h-2v-2h2V30zM17,30h-2v-2h2V30zM21,30h-2v-2h2V30zM25,30h-2v-2h2V30zM29,30h-2v-2h2V30zM29,12h-2v-2h2V12z" fill-rule="evenodd" fill="#797979"/>
    <path d="M7,28h2v2H7V28zM9,10H7v2h2V10zM3,30h2v-2H3V30zM5,10H3v2h2V10zM25,10.2745L23.268,12H25V10.2745zM13,10h-2v2h2V10zM16.8295,10H15v1.8226L16.8295,10zM27,12h2v-2h-2V12zM27,30h2v-2h-2V30zM28.1667,13h-5.9024L17,18.2444v7.9223c0,0.4602,0.3731,0.8333,0.8333,0.8333h10.3333c0.4602,0,0.8333,-0.3731,0.8333,-0.8333V13.8333C29,13.3731,28.6269,13,28.1667,13zM23,30h2v-2h-2V30zM19,30h2v-2h-2V30zM11,30h2v-2h-2V30zM15,19.7127l-4.1415,2.171c-0.1616,0.0846,-0.3432,0.1293,-0.5254,0.1293c-0.3015,0,-0.5852,-0.1172,-0.7987,-0.3299l-0.2019,-0.2012c-0.3539,-0.353,-0.4349,-0.8866,-0.202,-1.3283l2.6093,-4.9445c0.1474,-0.2792,0.4,-0.479,0.6947,-0.5614c0.0432,-0.2182,0.15,-0.4187,0.3111,-0.5793L13.8182,13H3.8333c-0.4602,0,-0.8333,0.3731,-0.8333,0.8333v12.3333c0,0.4602,0.3731,0.8333,0.8333,0.8333h10.3333c0.4602,0,0.8333,-0.3731,0.8333,-0.8333V19.7127zM15,30h2v-2h-2V30z" fill="#FFFFFF"/>
    <path d="M13.4514,14.7769L25.046,3.226c0.0513,-0.0511,0.1344,-0.0511,0.1857,0l2.6199,2.6111c0.0513,0.0511,0.0513,0.134,0,0.1851L16.257,17.5731c-0.0513,0.0511,-0.1344,0.0511,-0.1857,0l-2.6199,-2.6111C13.4002,14.9108,13.4002,14.828,13.4514,14.7769zM26.9577,1.3206c0.4658,-0.4642,0.9398,-0.4642,1.4056,0l1.3072,1.3028c0.4394,0.4379,0.4394,1.148,0,1.586l-0.97,0.9667c-0.0511,0.0509,-0.1339,0.0511,-0.1853,0.0004l-2.6389,-2.6071c-0.0519,-0.0513,-0.0518,-0.135,0.0002,-0.1861L26.9577,1.3206zM10.0151,20.6201l2.6092,-4.9443c0.0412,-0.0781,0.1465,-0.094,0.2091,-0.0316l2.5534,2.5449c0.0626,0.0624,0.0466,0.1673,-0.0317,0.2084l-4.9608,2.6005c-0.0509,0.0267,-0.1133,0.0172,-0.154,-0.0233l-0.2018,-0.2011C9.9978,20.733,9.9883,20.6708,10.0151,20.6201z" fill-rule="evenodd" fill="#217346"/>
  </g>
</svg>