<svg version="1.1" id="Layer_1" xmlns="http://www.w3.org/2000/svg" xmlns:xlink="http://www.w3.org/1999/xlink" x="0px" y="0px" width="32px" height="32px" viewBox="0 0 32 32" enable-background="new 0 0 32 32" xml:space="preserve">
  <g id="icon">
    <path d="M28.2915,11H3.7085c-0.3913,0,-0.7085,-0.2439,-0.7085,0.1955v18.0091c0,0.4393,0.3172,0.7955,0.7085,0.7955h24.583c0.3913,0,0.7085,-0.3561,0.7085,-0.7955V11.7955C29,11.3561,28.6828,11,28.2915,11zM4,15.0166V12h0.0156l3.0392,3.0166H4zM10.5617,15.0166L7.5224,12h3.9744l3.0393,3.0166H10.5617zM18.0896,15.0166L15.0504,12h3.9276l3.0392,3.0166H18.0896zM28,15.0166h-2.3824L22.5784,12h3.769L28,13.6403V15.0166z" fill="#797979"/>
    <path d="M4.0156,12l3.0392,3.0166H4V12H4.0156zM7.5224,12l3.0392,3.0166h3.9744L11.4968,12H7.5224zM15.0504,12l3.0392,3.0166h3.9277L18.9781,12H15.0504zM28,13.6403L26.3474,12h-3.769l3.0393,3.0166H28V13.6403z" fill="#FFFFFF"/>
    <path d="M28.3252,4.9989l-0.8275,-3.3071c-0.1066,-0.4262,-0.5008,-0.6947,-0.8804,-0.5997L2.769,7.0574c-0.3796,0.095,-0.6009,0.5174,-0.4942,0.9436l0.8275,3.3071c0.1066,0.4262,0.5008,0.6947,0.8804,0.5997L27.831,5.9426C28.2106,5.8476,28.4318,5.4251,28.3252,4.9989zM4.0271,10.8831l-0.7325,-2.9263l0.0151,-0.0038l3.6805,2.189L4.0271,10.8831zM10.3917,9.2911l-3.6805,-2.189l3.8551,-0.9643l3.6805,2.1889L10.3917,9.2911zM17.6937,7.4646l-3.6805,-2.189l3.8097,-0.9529l3.6805,2.1889L17.6937,7.4646zM24.9957,5.6381l-3.6805,-2.1889l3.6559,-0.9145l2.0013,1.1902l0.3342,1.3351L24.9957,5.6381z" fill="#797979"/>
    <path d="M3.3097,7.953l3.6805,2.1889l-2.9631,0.7412l-0.7325,-2.9263L3.3097,7.953zM6.7112,7.1021l3.6805,2.1889l3.8551,-0.9643l-3.6805,-2.1889L6.7112,7.1021zM14.0132,5.2757l3.6805,2.1889l3.8097,-0.9529l-3.6805,-2.1889L14.0132,5.2757zM26.9724,3.725l-2.0013,-1.1902l-3.6559,0.9145l3.6805,2.1889l2.3108,-0.578L26.9724,3.725z" fill="#FFFFFF"/>
  </g>
</svg>