<svg version="1.1" id="Layer_1" xmlns="http://www.w3.org/2000/svg" xmlns:xlink="http://www.w3.org/1999/xlink" x="0px" y="0px" width="32px" height="32px" viewBox="0 0 32 32" enable-background="new 0 0 32 32" xml:space="preserve">
  <g id="icon">
    <path d="M9.785,21c0.144,0,0.274,0,0.388,0c0.02,0,0.041,0,0.06,0c0.435,0,0.98,0,1.541,0c-1.055,-1.832,-1.543,-4.057,-1.543,-5.573c0,-2.221,0.481,-5.098,4.309,-5.662c-0.048,-0.532,-0.068,-1.069,-0.076,-1.603c-0.017,-1.17,-0.072,-2.324,-0.432,-3.448c-0.665,-2.073,-2.563,-2.819,-4.058,-2.703c-0.521,0.04,-0.995,0.258,-1.409,0.61c-0.103,0.088,-0.253,0.17,-0.378,0.166c-1.255,-0.042,-2.005,0.735,-2.406,1.762c-0.266,0.682,-0.406,1.402,-0.42,2.131c-0.016,0.842,0.033,1.687,0.071,2.53c0.039,0.873,-0.02,1.725,-0.419,2.515c-0.186,0.369,-0.357,0.584,-0.659,0.81c-0.194,0.145,-0.196,0.443,-0.003,0.589c0.559,0.423,1.586,0.708,3.107,0.862c-0.868,2.677,-6.502,0.534,-6.502,6.101c0,0.88,2.791,0.911,4.197,0.911c0.459,0,3.121,0,4.57,0C9.745,21,9.766,21,9.785,21z" fill="#A7A9AC"/>
    <path d="M24.505,14.012c1.11,-0.044,2.18,-0.208,3.105,-0.9c0.193,-0.144,0.194,-0.447,-0.001,-0.588c-0.63,-0.455,-0.849,-1.178,-0.968,-1.929c-0.126,-0.799,-0.165,-1.62,-0.177,-2.432c-0.017,-1.17,-0.072,-2.324,-0.432,-3.448c-0.665,-2.073,-2.563,-2.819,-4.058,-2.703c-0.521,0.04,-0.995,0.258,-1.409,0.61c-0.103,0.088,-0.253,0.17,-0.378,0.166c-1.255,-0.042,-2.005,0.735,-2.406,1.762c-0.266,0.682,-0.406,1.402,-0.42,2.131c-0.016,0.842,0.033,1.687,0.071,2.53c0.008,0.186,0.012,0.372,0.009,0.556c1.373,0.202,2.407,0.715,3.137,1.551c1.092,1.25,1.218,2.944,1.218,4.109c0,1.516,-0.489,3.74,-1.543,5.573c0.536,0,1.054,0,1.47,0c0.02,0,0.041,0,0.06,0c0.144,0,0.274,0,0.388,0c0.02,0,0.041,0,0.06,0c1.449,0,4.111,0,4.57,0c1.406,0,4.197,-0.032,4.197,-0.911C31,14.538,25.4,16.652,24.505,14.012z" fill="#A7A9AC"/>
    <path d="M24.942,26.483c-0.452,-2.399,-1.257,-2.439,-5.658,-4.072c-0.643,-0.254,-0.824,-0.618,-0.776,-1.139c1.241,-1.559,1.989,-4.081,1.989,-5.845c0,-2.731,-0.887,-4.46,-4.519,-4.46c-0.015,0,0.005,0,0,0c-3.633,0,-4.446,1.73,-4.446,4.46c0,1.763,0.745,4.281,1.986,5.84c0.048,0.521,-0.135,0.888,-0.777,1.142c-4.401,1.633,-5.206,1.674,-5.659,4.073c-0.136,0.964,-0.159,1.369,0.204,2.437c0.408,1.203,6.17,1.045,8.693,1.045c0.01,0,-0.017,0,0,0c2.522,0,8.352,0.158,8.76,-1.045C25.1,27.851,25.078,27.447,24.942,26.483z" fill-rule="evenodd" fill="#217346"/>
  </g>
</svg>