<svg version="1.1" id="Layer_1" xmlns="http://www.w3.org/2000/svg" xmlns:xlink="http://www.w3.org/1999/xlink" x="0px" y="0px" width="32px" height="32px" viewBox="0 0 32 32" enable-background="new 0 0 32 32" xml:space="preserve">
  <g id="icon">
    <path d="M29.7862,8h-1.5807c0.0037,-0.1,-0.014,-0.4586,-0.0615,-0.6486C27.7869,5.9234,26.5764,5,25.7877,5h-9.9605c-0.7887,0,-1.6779,0.9981,-2.0349,2.3514C13.743,7.5383,13.7196,7.9,13.7146,8H10V6.4H5v1.6H2.4395C1.6508,8,1,8.6732,1,9.4618v17.0723C1,27.3228,1.6508,28,2.4395,28H29.572c0.7887,0,1.428,-0.6772,1.428,-1.4659V9.4618C31,8.6732,30.5749,8,29.7862,8zM11,12H5c-0.3943,0,-1,-0.4151,-1,-0.979c0,-0.5639,0.6057,-1.021,1,-1.021h6c0.3943,0,1,0.4912,1,1.055C12,11.6189,11.3943,12,11,12zM21.0003,25.9919c-4.4185,0,-8.0003,-3.5696,-8.0003,-7.9729c0,-4.4033,3.5819,-7.9729,8.0003,-7.9729c4.4185,0,8.0003,3.5696,8.0003,7.9729C29.0007,22.4223,25.4188,25.9919,21.0003,25.9919zM20.9915,12.4865c-3.061,0,-5.5424,2.4729,-5.5424,5.5234c0,3.0505,2.4814,5.5234,5.5424,5.5234c3.061,0,5.5424,-2.4729,5.5424,-5.5234C26.534,14.9594,24.0525,12.4865,20.9915,12.4865zM23.4078,14.719c-0.5659,-0.0435,-1.1567,0.0021,-1.7587,0.1511c-1.8559,0.4595,-3.3195,1.9231,-3.779,3.779c-0.149,0.6019,-0.1946,1.1927,-0.1511,1.7586c0.0145,0.1893,-0.2309,0.2706,-0.3361,0.1125c-0.5205,-0.7824,-0.7988,-1.7397,-0.7273,-2.7652c0.1521,-2.1829,1.9167,-3.9475,4.0995,-4.0995c1.0255,-0.0714,1.9828,0.2069,2.7652,0.7273C23.6784,14.488,23.5971,14.7335,23.4078,14.719z" fill="#217346"/>
    <path d="M5,10h6c0.3943,0,1,0.4912,1,1.055c0,0.5639,-0.6057,0.945,-1,0.945H5c-0.3943,0,-1,-0.4151,-1,-0.979C4,10.4571,4.6057,10,5,10zM21.0003,10.046c-4.4185,0,-8.0003,3.5696,-8.0003,7.9729s3.5819,7.9729,8.0003,7.9729c4.4185,0,8.0003,-3.5696,8.0003,-7.9729S25.4188,10.046,21.0003,10.046zM20.9915,23.5333c-3.061,0,-5.5424,-2.4729,-5.5424,-5.5234s2.4814,-5.5234,5.5424,-5.5234c3.061,0,5.5424,2.4729,5.5424,5.5234S24.0525,23.5333,20.9915,23.5333zM17.8701,18.6491c0.4595,-1.8559,1.9231,-3.3195,3.779,-3.779c0.6019,-0.149,1.1927,-0.1946,1.7587,-0.1511c0.1893,0.0145,0.2706,-0.2309,0.1125,-0.3361c-0.7824,-0.5205,-1.7397,-0.7988,-2.7652,-0.7273c-2.1829,0.1521,-3.9475,1.9167,-4.0995,4.0995c-0.0714,1.0255,0.2069,1.9828,0.7273,2.7652c0.1052,0.1581,0.3506,0.0768,0.3361,-0.1125C17.6755,19.8419,17.7211,19.2511,17.8701,18.6491z" fill-rule="evenodd" fill="#FFFFFF"/>
  </g>
</svg>