<svg version="1.1" id="Layer_1" xmlns="http://www.w3.org/2000/svg" xmlns:xlink="http://www.w3.org/1999/xlink" x="0px" y="0px" width="32px" height="32px" viewBox="0 0 32 32" enable-background="new 0 0 32 32" xml:space="preserve">
  <g id="icon">
    <path d="M4,7v18h9c0,0.55,0.45,1,1,1h4c0.55,0,1,-0.45,1,-1h9V7H4z" fill="#FFFFFF"/>
    <path d="M31.6,25h-1.6V7.033C30,5.915,29.085,5,27.967,5H4.033C2.915,5,2,5.915,2,7.033V25H0.4c-0.221,0,-0.4,0.179,-0.4,0.4v0.6c0,1.105,0.895,2,2,2h28c1.105,0,2,-0.895,2,-2v-0.6C32,25.179,31.821,25,31.6,25zM28,7v17H4V7H28zM18,26h-4c-0.55,0,-1,-0.45,-1,-1h6C19,25.55,18.55,26,18,26z" fill="#797979"/>
    <path d="M15.5,10H7.5c-0.276,0,-0.5,-0.224,-0.5,-0.5v0c0,-0.276,0.224,-0.5,0.5,-0.5h8c0.276,0,0.5,0.224,0.5,0.5v0C16,9.776,15.776,10,15.5,10zM24,11.5L24,11.5c0,-0.276,-0.224,-0.5,-0.5,-0.5H9.5c-0.276,0,-0.5,0.224,-0.5,0.5v0c0,0.276,0.224,0.5,0.5,0.5h14C23.776,12,24,11.776,24,11.5zM23,13.5L23,13.5c0,-0.276,-0.224,-0.5,-0.5,-0.5H11.5c-0.276,0,-0.5,0.224,-0.5,0.5l0,0c0,0.276,0.224,0.5,0.5,0.5h11C22.776,14,23,13.776,23,13.5zM25,15.5L25,15.5c0,-0.276,-0.224,-0.5,-0.5,-0.5H11.5c-0.276,0,-0.5,0.224,-0.5,0.5l0,0c0,0.276,0.224,0.5,0.5,0.5h13C24.776,16,25,15.776,25,15.5zM22,17.5L22,17.5c0,-0.276,-0.224,-0.5,-0.5,-0.5H11.5c-0.276,0,-0.5,0.224,-0.5,0.5l0,0c0,0.276,0.224,0.5,0.5,0.5h10C21.776,18,22,17.776,22,17.5zM24,19.5L24,19.5c0,-0.276,-0.224,-0.5,-0.5,-0.5H9.5c-0.276,0,-0.5,0.224,-0.5,0.5l0,0c0,0.276,0.224,0.5,0.5,0.5h14C23.776,20,24,19.776,24,19.5zM18,21.5L18,21.5c0,-0.276,-0.224,-0.5,-0.5,-0.5H7.5c-0.276,0,-0.5,0.224,-0.5,0.5l0,0c0,0.276,0.224,0.5,0.5,0.5h10C17.776,22,18,21.776,18,21.5z" fill="#217346"/>
  </g>
</svg>