<svg version="1.1" id="Layer_1" xmlns="http://www.w3.org/2000/svg" xmlns:xlink="http://www.w3.org/1999/xlink" x="0px" y="0px" width="16px" height="16px" viewBox="0 0 16 16" enable-background="new 0 0 16 16" xml:space="preserve">
  <g id="icon">
    <path d="M9.3,12.255c-0.088,0.088,-0.189,0.159,-0.299,0.21c-0.1,0.173,-0.248,0.317,-0.429,0.411l-2.673,1.401c-0.153,0.08,-0.325,0.122,-0.497,0.122c-0.285,0,-0.554,-0.111,-0.756,-0.312l-0.109,-0.109c-0.335,-0.335,-0.412,-0.84,-0.191,-1.258l1.406,-2.664c0.097,-0.183,0.241,-0.33,0.413,-0.429c0.052,-0.109,0.123,-0.209,0.211,-0.297l5.588,-5.567c-0.58,-0.58,-2.745,-2.745,-2.923,-2.923C8.849,0.649,8.583,0.5,8.117,0.5S1.1,0.5,1.1,0.5c-0.331,0,-0.6,0.269,-0.6,0.6v13.8c0,0.331,0.269,0.6,0.6,0.6h10.8c0.331,0,0.6,-0.269,0.6,-0.6c0,0,0,-3.089,0,-5.834L9.3,12.255z" fill-rule="evenodd" fill="#FFFFFF"/>
    <path d="M12,9.564V14.9c0,0.055,-0.045,0.1,-0.1,0.1H1.1c-0.055,0,-0.1,-0.045,-0.1,-0.1V1.1c0,-0.055,0.045,-0.1,0.1,-0.1h6.9v3c0,0.473,0.399,0.867,0.798,0.972C8.849,4.99,8.904,5,8.961,5h1.762l1.595,-1.589L9.395,0.488C9.067,0.16,8.649,0,8.117,0H1.1C0.493,0,0,0.493,0,1.1v13.8c0,0.607,0.493,1.1,1.1,1.1h10.8c0.607,0,1.1,-0.493,1.1,-1.1V8.568L12,9.564zM9,1.507L11.493,4H9.045c-0.016,-0.009,-0.034,-0.023,-0.045,-0.035V1.507z" fill="#6D6E71"/>
    <path d="M2,7.5c0,-0.276,0.224,-0.5,0.5,-0.5h6.216L7.712,8H2.5C2.224,8,2,7.776,2,7.5zM2.5,6h4c0.276,0,0.5,-0.224,0.5,-0.5s-0.224,-0.5,-0.5,-0.5H2.5c-0.276,0,-0.5,0.224,-0.5,0.5S2.224,6,2.5,6zM2.5,4h4c0.276,0,0.5,-0.224,0.5,-0.5s-0.224,-0.5,-0.5,-0.5H2.5c-0.276,0,-0.5,0.224,-0.5,0.5S2.224,4,2.5,4zM2.5,12h2.226l0.528,-1H2.5c-0.276,0,-0.5,0.224,-0.5,0.5S2.224,12,2.5,12zM10.554,11.005L9.555,12H10.5c0.276,0,0.5,-0.224,0.5,-0.5C11,11.242,10.804,11.032,10.554,11.005zM3.5,13H2.5c-0.276,0,-0.5,0.224,-0.5,0.5s0.224,0.5,0.5,0.5h1c0.276,0,0.5,-0.224,0.5,-0.5S3.776,13,3.5,13zM2.5,10h3.287c0.095,-0.156,0.224,-0.284,0.378,-0.372c0.052,-0.109,0.123,-0.209,0.211,-0.297L6.708,9H2.5c-0.276,0,-0.5,0.224,-0.5,0.5S2.224,10,2.5,10z" fill="#B4B4B5"/>
    <path d="M7.082,10.039l6.248,-6.225c0.028,-0.028,0.072,-0.028,0.1,0l1.412,1.407c0.028,0.028,0.028,0.072,0,0.1l-6.248,6.225c-0.028,0.028,-0.072,0.028,-0.1,0l-1.412,-1.407C7.054,10.111,7.054,10.067,7.082,10.039zM14.36,2.788c0.251,-0.25,0.506,-0.25,0.757,0l0.704,0.702c0.237,0.236,0.237,0.619,0,0.855L15.3,4.865c-0.028,0.027,-0.072,0.028,-0.1,0l-1.422,-1.405c-0.028,-0.028,-0.028,-0.073,0,-0.1L14.36,2.788zM5.23,13.188l1.406,-2.665c0.022,-0.042,0.079,-0.051,0.113,-0.017l1.376,1.371c0.034,0.034,0.025,0.09,-0.017,0.112l-2.673,1.401c-0.027,0.014,-0.061,0.009,-0.083,-0.013l-0.109,-0.108C5.221,13.249,5.216,13.216,5.23,13.188z" fill-rule="evenodd" fill="#217346"/>
  </g>
</svg>
