<svg version="1.1" id="Layer_1" xmlns="http://www.w3.org/2000/svg" xmlns:xlink="http://www.w3.org/1999/xlink" x="0px" y="0px" width="32px" height="32px" viewBox="0 0 32 32" enable-background="new 0 0 32 32" xml:space="preserve">
  <g id="main">
    <g id="icon">
      <path d="M13.91,0.09492L12.36,0.3309L10.87,0.7145L9.443,1.238L8.087,1.892L6.809,2.671L5.617,3.565L4.519,4.568L3.522,5.67L2.633,6.864L1.861,8.142L1.212,9.496L0.6939,10.92L0.3148,12.4L0.08184,13.94L0.002344,15.51L0.08281,17.09L0.3188,18.63L0.7023,20.11L1.225,21.53L1.88,22.89L2.659,24.17L3.553,25.36L4.555,26.46L5.658,27.46L6.852,28.36L8.13,29.14L9.484,29.79L10.91,30.31L12.39,30.7L13.92,30.93L15.5,31.01L17.08,30.93L18.61,30.7L17.97,30.06L17.79,29.84L17.65,29.6L17.51,29.07L17.56,28.53L17.66,28.27L17.8,28.02L18.45,27.1L18.34,26.81L17.31,26.63L17.04,26.56L16.79,26.44L16.37,26.09L16.1,25.62L16.03,25.35L16,25.07L16,23.88L16.03,23.6L16.1,23.33L16.36,22.88L16.08,22.88L15.89,22.84L15.73,22.74L15.63,22.59L15.6,22.39L15.54,21.71L15.42,21.04L15.24,20.38L15.01,19.75L14.71,19.15L14.36,18.58L13.94,18.04L13.47,17.55L12.97,17.07L12.44,16.64L11.87,16.27L11.26,15.96L10.63,15.71L9.98,15.52L9.309,15.39L8.624,15.32L8.426,15.29L8.273,15.19L8.175,15.03L8.14,14.84L8.14,12.71L8.188,12.51L8.309,12.37L8.467,12.3L8.624,12.32L9.627,12.4L10.6,12.58L11.54,12.86L12.44,13.21L13.3,13.65L14.11,14.17L14.88,14.76L15.6,15.42L16.26,16.13L16.85,16.9L17.36,17.72L17.8,18.58L17.97,19.01L18.1,18.86L18.94,18.02L19.18,17.82L19.46,17.67L19.75,17.58L20.01,17.56L19.5,16.55L18.87,15.54L18.15,14.59L17.34,13.71L16.46,12.91L15.51,12.19L14.49,11.56L13.41,11.02L12.28,10.58L11.1,10.24L9.88,10.01L8.624,9.896L8.426,9.861L8.273,9.762L8.175,9.61L8.14,9.411L8.14,7.28L8.19,7.082L8.321,6.929L8.508,6.83L8.721,6.796L10.27,6.912L11.78,7.183L13.24,7.599L14.64,8.152L15.98,8.832L17.24,9.629L18.4,10.54L19.47,11.54L20.48,12.64L21.39,13.82L22.19,15.09L22.86,16.42L22.87,16.43L22.91,16.37L23.38,16.1L23.65,16.03L23.93,16L25.12,16L25.4,16.03L25.67,16.1L26.14,16.37L26.49,16.79L26.61,17.04L26.68,17.31L26.89,18.51L27.18,18.63L28.11,17.98L28.54,17.76L29.02,17.69L29.34,17.72L29.63,17.81L29.9,17.95L30.14,18.15L30.67,18.68L30.69,18.63L30.92,17.09L31,15.51L30.92,13.94L30.69,12.4L30.3,10.92L29.78,9.496L29.12,8.142L28.35,6.864L27.45,5.67L26.45,4.568L25.35,3.565L24.15,2.671L22.88,1.892L21.52,1.238L20.1,0.7145L18.62,0.3309L17.08,0.09492L15.5,0.01445zM10.7,18.65L11.12,18.76L11.5,18.94L11.82,19.2L12.08,19.51L12.26,19.86L12.37,20.27L12.4,20.75L12.37,21.16L12.26,21.54L12.08,21.89L11.82,22.2L11.51,22.45L11.16,22.63L10.74,22.74L10.27,22.78L9.838,22.74L9.423,22.63L9.045,22.45L8.721,22.2L8.467,21.89L8.285,21.54L8.176,21.16L8.14,20.75L8.176,20.31L8.285,19.9L8.467,19.52L8.721,19.2L9.031,18.94L9.387,18.76L9.797,18.65L10.27,18.61zz" fill="#E78155"/>
      <path d="M8.508,6.831L8.322,6.929L8.19,7.082L8.14,7.28L8.14,9.411L8.175,9.61L8.273,9.762L8.426,9.861L8.624,9.896L9.88,10.01L11.1,10.24L12.28,10.58L13.41,11.02L14.49,11.56L15.51,12.19L16.46,12.91L17.34,13.71L18.15,14.59L18.87,15.54L19.5,16.55L20.01,17.56L20.06,17.55L20.54,17.63L20.98,17.84L21.95,18.53L22.17,18.44L22.37,17.31L22.44,17.04L22.56,16.79L22.87,16.43L22.87,16.42L22.19,15.09L21.39,13.82L20.48,12.64L19.47,11.54L18.4,10.54L17.24,9.629L15.98,8.832L14.64,8.152L13.24,7.6L11.78,7.183L10.27,6.912L8.721,6.796zM8.31,12.37L8.188,12.51L8.14,12.71L8.14,14.84L8.175,15.03L8.273,15.19L8.426,15.29L8.624,15.32L9.309,15.39L9.98,15.52L10.63,15.71L11.26,15.96L11.87,16.27L12.44,16.64L12.97,17.07L13.47,17.55L13.94,18.04L14.36,18.58L14.71,19.15L15.01,19.75L15.24,20.38L15.42,21.04L15.54,21.71L15.6,22.39L15.63,22.59L15.73,22.74L15.89,22.84L16.08,22.88L16.36,22.88L16.37,22.86L16.79,22.51L17.04,22.39L17.31,22.32L18.41,22.12L18.55,21.78L17.93,20.89L17.78,20.64L17.69,20.38L17.64,19.84L17.78,19.31L17.92,19.07L17.97,19.01L17.8,18.58L17.36,17.72L16.85,16.9L16.26,16.13L15.6,15.42L14.88,14.76L14.11,14.17L13.3,13.65L12.44,13.21L11.54,12.86L10.6,12.58L9.627,12.4L8.624,12.32L8.467,12.3zM9.797,18.65L9.387,18.76L9.031,18.94L8.721,19.2L8.467,19.52L8.285,19.9L8.176,20.31L8.14,20.75L8.176,21.16L8.285,21.54L8.467,21.89L8.721,22.2L9.045,22.45L9.423,22.63L9.838,22.74L10.27,22.78L10.74,22.74L11.16,22.63L11.51,22.45L11.82,22.2L12.08,21.89L12.26,21.55L12.37,21.16L12.4,20.75L12.37,20.27L12.26,19.86L12.08,19.51L11.82,19.2L11.5,18.94L11.12,18.76L10.7,18.65L10.27,18.61zz" fill="#FFFFFF"/>
    </g>
    <g id="overlay">
      <path d="M32,25.1684v-1.1862c0,-0.2849,-0.2049,-0.5284,-0.4855,-0.5773l-1.7273,-0.3005c-0.111,-0.4044,-0.2712,-0.8016,-0.4802,-1.1849l1.0345,-1.4702c0.1639,-0.233,0.1365,-0.5501,-0.0649,-0.7515l-0.8389,-0.8389c-0.2014,-0.2014,-0.5185,-0.2288,-0.7515,-0.0649l-1.4282,1.0049c-0.3951,-0.2322,-0.8161,-0.4135,-1.2529,-0.5414l-0.3083,-1.772c-0.0488,-0.2806,-0.2924,-0.4855,-0.5773,-0.4855h-1.1864c-0.2849,0,-0.5284,0.2049,-0.5773,0.4855l-0.3003,1.7262c-0.4096,0.107,-0.8125,0.2629,-1.2013,0.4699l-1.454,-1.023c-0.233,-0.1639,-0.5501,-0.1365,-0.7515,0.0649l-0.8389,0.8389c-0.2014,0.2014,-0.2288,0.5185,-0.0649,0.7515l0.9738,1.384c-0.2485,0.4108,-0.416,0.8511,-0.5502,1.3083l-1.6841,0.2963c-0.2801,0.0493,-0.4844,0.2926,-0.4844,0.5771v1.1883c0,0.2844,0.2043,0.5278,0.4844,0.5771l1.63,0.2869c0.1111,0.4348,0.265,0.8622,0.4886,1.2734l-0.9861,1.3947c-0.1646,0.2328,-0.1377,0.5503,0.0637,0.7522l0.8356,0.8373c0.2014,0.2018,0.5189,0.2294,0.7521,0.0652l1.3403,-0.9438c0.4257,0.2545,0.8815,0.4252,1.3557,0.5575l0.2893,1.6473c0.0492,0.2802,0.2926,0.4846,0.5771,0.4846h1.1882c0.2844,0,0.5278,-0.2043,0.5771,-0.4844l0.2871,-1.6311c0.4295,-0.1154,0.8514,-0.2731,1.257,-0.4989l1.4109,0.9975c0.2328,0.1646,0.5503,0.1377,0.7522,-0.0637l0.8373,-0.8356c0.2018,-0.2014,0.2294,-0.5189,0.0652,-0.7521l-0.9749,-1.3844c0.2382,-0.41,0.4225,-0.8465,0.5487,-1.3003l1.7351,-0.3013C31.795,25.697,32,25.4533,32,25.1684zM25.7239,26.7708c-1.2182,0.7033,-2.7759,0.2859,-3.4792,-0.9322c-0.7033,-1.2182,-0.2859,-2.7758,0.9322,-3.4792c1.2182,-0.7033,2.7758,-0.2859,3.4792,0.9322C27.3594,24.5098,26.942,26.0675,25.7239,26.7708z" fill-rule="evenodd" fill="#797979"/>
    </g>
  </g>
</svg>