<svg version="1.1" id="Layer_1" xmlns="http://www.w3.org/2000/svg" xmlns:xlink="http://www.w3.org/1999/xlink" x="0px" y="0px" width="16px" height="16px" viewBox="0 0 16 16" enable-background="new 0 0 16 16" xml:space="preserve">
  <g id="main">
    <g id="icon">
      <path d="M6.728,0.03887L5.98,0.1531L5.259,0.3387L4.568,0.5918L3.912,0.9086L3.294,1.285L2.717,1.718L2.186,2.203L1.703,2.736L1.273,3.314L0.8992,3.933L0.5852,4.588L0.3346,5.276L0.1512,5.993L0.03848,6.736L0,7.5L0.03887,8.264L0.1531,9.007L0.3387,9.724L0.5918,10.41L0.9086,11.07L1.285,11.69L1.718,12.26L2.203,12.8L2.736,13.28L3.314,13.71L3.933,14.09L4.588,14.41L5.276,14.66L5.993,14.85L6.736,14.96L7.208,14.99L7.028,14.73L6.91,14.28L6.95,13.82L7.154,13.38L7.282,13.2L7.117,13.17L6.67,13.01L6.316,12.71L6.084,12.31L6,11.84L6,11.13L6.084,10.66L6.316,10.26L6.67,9.96L7.117,9.797L7.123,9.796L6.82,9.244L6.326,8.674L5.756,8.172L5.105,7.796L4.394,7.55L3.643,7.44L3.449,7.366L3.375,7.172L3.375,5.991L3.402,5.882L3.469,5.804L3.556,5.765L3.643,5.777L4.199,5.824L4.737,5.924L5.257,6.075L5.756,6.273L6.684,6.803L7.506,7.494L7.602,7.607L7.882,7.327L8.088,7.157L8.32,7.033L8.572,6.957L8.825,6.932L8.472,6.548L7.983,6.104L7.455,5.706L6.891,5.356L6.294,5.057L5.667,4.812L5.015,4.625L4.339,4.499L3.643,4.436L3.449,4.362L3.375,4.167L3.375,2.987L3.403,2.877L3.476,2.792L3.697,2.719L4.554,2.783L5.389,2.933L6.199,3.164L6.976,3.47L7.716,3.846L8.412,4.288L9.06,4.79L9.652,5.348L10.21,5.956L10.43,6.238L10.69,6.084L11.16,6L11.87,6L12.34,6.084L12.74,6.317L13.04,6.671L13.2,7.12L13.25,7.389L13.44,7.259L13.81,7.075L14.21,7.012L14.48,7.038L14.73,7.114L14.96,7.239L14.99,7.259L14.96,6.736L14.85,5.993L14.66,5.276L14.41,4.588L14.09,3.933L13.71,3.314L13.28,2.736L12.8,2.203L12.26,1.718L11.69,1.285L11.07,0.9086L10.41,0.5918L9.724,0.3387L9.007,0.1531L8.264,0.03887L7.5,0zM5.025,9.345L5.234,9.445L5.414,9.586L5.655,9.955L5.736,10.44L5.655,10.89L5.414,11.25L5.045,11.49L4.555,11.57L4.086,11.49L3.876,11.39L3.697,11.25L3.456,10.89L3.375,10.44L3.456,9.975L3.556,9.766L3.697,9.586L4.066,9.345L4.555,9.264zz" fill="#E78155"/>
      <path d="M3.476,2.793L3.403,2.877L3.375,2.987L3.375,4.167L3.449,4.362L3.643,4.436L4.339,4.499L5.015,4.625L5.667,4.812L6.294,5.057L6.891,5.356L7.455,5.706L7.983,6.104L8.472,6.548L8.824,6.932L8.838,6.931L9.246,6.994L9.616,7.177L9.796,7.304L9.828,7.12L9.991,6.671L10.29,6.317L10.43,6.238L10.21,5.956L9.652,5.348L9.06,4.79L8.412,4.288L7.716,3.846L6.976,3.47L6.199,3.164L5.389,2.933L4.554,2.783L3.697,2.719zM3.469,5.804L3.402,5.883L3.375,5.991L3.375,7.172L3.449,7.366L3.643,7.44L4.394,7.55L5.105,7.796L5.756,8.172L6.326,8.674L6.82,9.244L7.123,9.796L7.363,9.753L7.229,9.564L7.027,9.131L6.987,8.67L7.106,8.222L7.379,7.83L7.602,7.607L7.506,7.494L6.684,6.803L5.756,6.273L5.257,6.075L4.737,5.924L4.199,5.824L3.643,5.777L3.556,5.765zM4.066,9.345L3.697,9.586L3.556,9.766L3.456,9.975L3.375,10.44L3.456,10.89L3.697,11.25L3.876,11.39L4.086,11.49L4.555,11.57L5.045,11.49L5.414,11.25L5.655,10.89L5.736,10.44L5.655,9.955L5.414,9.586L5.234,9.445L5.025,9.345L4.555,9.264zz" fill="#FFFFFF"/>
    </g>
    <g id="overlay">
      <path d="M16,11.901v-0.7117c0,-0.1709,-0.1229,-0.3171,-0.2913,-0.3464l-1.0364,-0.1803c-0.0666,-0.2426,-0.1627,-0.481,-0.2881,-0.7109l0.6207,-0.8821c0.0984,-0.1398,0.0819,-0.33,-0.0389,-0.4509l-0.5033,-0.5033c-0.1209,-0.1209,-0.3111,-0.1373,-0.4509,-0.0389l-0.8569,0.6029c-0.2371,-0.1393,-0.4897,-0.2481,-0.7517,-0.3248l-0.185,-1.0632c-0.0293,-0.1684,-0.1754,-0.2913,-0.3464,-0.2913h-0.7118c-0.1709,0,-0.3171,0.1229,-0.3464,0.2913l-0.1802,1.0357c-0.2458,0.0642,-0.4875,0.1577,-0.7208,0.2819l-0.8724,-0.6138c-0.1398,-0.0984,-0.33,-0.0819,-0.4509,0.0389l-0.5033,0.5033c-0.1209,0.1209,-0.1373,0.3111,-0.0389,0.4509l0.5843,0.8304c-0.1491,0.2465,-0.2496,0.5107,-0.3301,0.785l-1.0105,0.1778C7.1226,10.811,7,10.957,7,11.1277v0.713c0,0.1707,0.1226,0.3167,0.2906,0.3462l0.978,0.1721c0.0666,0.2609,0.159,0.5173,0.2932,0.764l-0.5916,0.8368c-0.0988,0.1397,-0.0826,0.3302,0.0382,0.4513l0.5013,0.5024c0.1209,0.1211,0.3114,0.1376,0.4513,0.0391l0.8042,-0.5663c0.2554,0.1527,0.5289,0.2551,0.8134,0.3345l0.1736,0.9884c0.0295,0.1681,0.1756,0.2908,0.3463,0.2908h0.7129c0.1707,0,0.3167,-0.1226,0.3462,-0.2906l0.1722,-0.9787c0.2577,-0.0693,0.5108,-0.1638,0.7542,-0.2994l0.8465,0.5985c0.1397,0.0988,0.3302,0.0826,0.4513,-0.0382l0.5024,-0.5014c0.1211,-0.1209,0.1376,-0.3114,0.0391,-0.4513l-0.585,-0.8307c0.1429,-0.246,0.2535,-0.5079,0.3292,-0.7802l1.0411,-0.1808C15.877,12.2182,16,12.072,16,11.901zM12.2343,12.8625c-0.7309,0.422,-1.6655,0.1716,-2.0875,-0.5593c-0.422,-0.7309,-0.1716,-1.6655,0.5593,-2.0875c0.7309,-0.422,1.6655,-0.1716,2.0875,0.5593C13.2156,11.5059,12.9652,12.4405,12.2343,12.8625z" fill-rule="evenodd" fill="#797979"/>
    </g>
  </g>
</svg>