<svg version="1.1" id="Layer_1" xmlns="http://www.w3.org/2000/svg" xmlns:xlink="http://www.w3.org/1999/xlink" x="0px" y="0px" width="32px" height="32px" viewBox="0 0 32 32" enable-background="new 0 0 32 32" xml:space="preserve">
  <g id="icon">
    <path d="M13.632,0.165L0,7.776v8.848L3,18.4l1.824,-1.151L2,15.508v-5.379l4.325,2.595v3.643l2,-1.3v-2.343l10.65,-6.39V8.6l2,-1.3V3.959L13.632,0.165zM7.325,10.992L2.996,8.394l10.673,-5.959l4.254,2.198L7.325,10.992z" fill="#fff"/>
    <path d="M12.213,14.255L4,19.198v8.334l7.357,4.421l8.218,-5.561v-8.332L12.213,14.255zM12.287,16.545l4.33,2.237l-5.324,3.591l-4.352,-2.611L12.287,16.545zM6,21.529l4.325,2.595v4.875L6,26.4V21.529zM12.325,28.883V24.09l5.25,-3.541v4.781L12.325,28.883z" fill="#fff"/>
    <path d="M24.599,6.248L15.2,12.213v2.32l2,1.1v-1.104l4.325,2.595v4.864L20.5,21.4v2.3l2.063,1.26l9.412,-6.579v-8.323L24.599,6.248zM18.104,12.739l6.597,-4.187l4.342,2.243l-6.559,4.572L18.104,12.739zM23.525,21.848V17.08l6.45,-4.496v4.755L23.525,21.848z" fill="#fff"/>
  </g>
</svg>