<svg version="1.1" id="Layer_1" xmlns="http://www.w3.org/2000/svg" xmlns:xlink="http://www.w3.org/1999/xlink" x="0px" y="0px" width="16px" height="16px" viewBox="0 0 16 16" enable-background="new 0 0 16 16" xml:space="preserve">
  <g id="icon">
    <path d="M4.8048,15.6531c0.0873,0,0.1712,-0.0344,0.2333,-0.0959l1.8546,-1.8379c0.1181,-0.1186,0.1153,-0.3063,-0.0057,-0.4278l-1.8487,-1.8542c-0.0622,-0.0624,-0.1466,-0.0975,-0.2347,-0.0975H3.7771c-0.1117,0,-0.1677,0.1349,-0.0888,0.214l1.3908,1.3938H3.3116c-0.7039,0,-1.2553,-0.5549,-1.2553,-1.2632v-1.1761c0,-0.2036,-0.0645,-0.267,-0.2692,-0.267h-0.5477c-0.1916,0,-0.2807,0.0489,-0.2807,0.267v1.1761c0,1.2798,0.9979,2.318,2.2731,2.3665l0.0033,0.0004l0.0119,0.0001c0.0166,0,0.0329,-0.002,0.0487,-0.006h1.7808l-1.3824,1.3875c-0.0811,0.0815,-0.0234,0.2203,0.0916,0.2203H4.8048z" fill="#3E79B4"/>
    <path d="M11.266,0.3727c-0.0873,0,-0.1712,0.0344,-0.2333,0.0959L9.1782,2.3065c-0.1181,0.1186,-0.1153,0.3063,0.0057,0.4278l1.8487,1.8542c0.0622,0.0624,0.1466,0.0975,0.2347,0.0975h1.0265c0.1117,0,0.1677,-0.1349,0.0888,-0.214l-1.3908,-1.3938h1.7674c0.7039,0,1.2553,0.5549,1.2553,1.2632v1.1761c0,0.2036,0.0645,0.267,0.2692,0.267h0.5477c0.1916,0,0.2807,-0.0489,0.2807,-0.267V4.3414c0,-1.2798,-0.9979,-2.318,-2.2731,-2.3665l-0.0033,-0.0004l-0.0119,-0.0001c-0.0166,0,-0.0329,0.002,-0.0487,0.006h-1.7808L12.3767,0.593c0.0811,-0.0815,0.0234,-0.2203,-0.0916,-0.2203H11.266z" fill="#3E79B4"/>
    <path d="M6.5663,7.8358l-0.7684,-1.9647H2.4693l-0.7684,1.9647C1.6632,7.9345,1.5667,8,1.4588,8H0.6843c-0.1809,0,-0.3058,-0.177,-0.2412,-0.342L3.3688,0.1788c0.0382,-0.0976,0.1342,-0.1621,0.2412,-0.1621h1.1066c0.1071,0,0.2031,0.0646,0.2413,0.1623l2.9204,7.4792C7.9427,7.8232,7.8179,8,7.637,8h-0.8287C6.7004,8,6.6039,7.9345,6.5663,7.8358zM5.414,4.8067L4.1338,1.4309L2.8583,4.8067H5.414z" fill="#6D6E71"/>
    <path d="M14.2446,15.9863c-0.7755,0.0001,-1.4975,-0.6092,-2.1444,-1.8109c-0.1687,0.1098,-0.3358,0.2113,-0.4977,0.3019c-0.951,0.5176,-1.9623,0.9552,-3.008,1.3017c-0.0601,0.0199,-0.1255,-0.01,-0.1501,-0.0683l-0.4161,-0.9849c-0.0271,-0.0641,0.0057,-0.1378,0.0712,-0.1613c1.4625,-0.5242,2.6371,-1.07,3.4935,-1.6234c-0.2463,-0.7876,-0.4075,-1.7871,-0.4793,-2.8594H8.2525c-0.1317,0,-0.2385,-0.1068,-0.2385,-0.2385v-0.6704c0,-0.1317,0.1068,-0.2385,0.2385,-0.2385h2.8024V7.2219c0,-0.1317,0.1068,-0.2385,0.2385,-0.2385h0.7852c0.1317,0,0.2385,0.1068,0.2385,0.2385v1.7122h1.5209c-0.2178,-0.3245,-0.5104,-0.6936,-0.8717,-1.0997c-0.0465,-0.0523,-0.0395,-0.133,0.0158,-0.1759l0.7077,-0.5478c0.0485,-0.0376,0.118,-0.0327,0.1608,0.0114c0.3912,0.4036,0.7322,0.8065,1.0158,1.2002c0.0364,0.0506,0.0274,0.1206,-0.0198,0.1613l-0.5223,0.4504h1.1968c0.1317,0,0.2385,0.1068,0.2385,0.2385v0.6704c0,0.1317,-0.1068,0.2385,-0.2385,0.2385h-3.1536c0.053,0.7728,0.1553,1.5084,0.3044,2.0759c0.5759,-0.4608,1.1862,-1.0109,1.8168,-1.6377c0.066,-0.0656,0.1746,-0.0586,0.2309,0.0154l0.6015,0.7903c0.0475,0.0625,0.0401,0.1512,-0.0169,0.2051c-0.7783,0.736,-1.493,1.3639,-2.1263,1.8682c0.5162,1.0433,0.7762,1.0066,1.1771,1.0158c0.1089,-0.0053,0.2272,-0.1558,0.3379,-0.4352c0.0958,-0.2417,0.1783,-0.4972,0.2462,-0.7619c0.0258,-0.1006,0.1417,-0.1471,0.2298,-0.0922l0.725,0.4524c0.0533,0.0333,0.0814,0.0953,0.0701,0.1571c-0.0475,0.2588,-0.1434,0.5996,-0.2857,1.0152c-0.1622,0.4748,-0.3654,0.8047,-0.6041,0.9805c-0.2338,0.1695,-0.4704,0.2571,-0.7033,0.2607h-0.0016L14.2446,15.9863z" fill="#6D6E71"/>
  </g>
</svg>