<svg version="1.1" id="Layer_1" xmlns="http://www.w3.org/2000/svg" xmlns:xlink="http://www.w3.org/1999/xlink" x="0px" y="0px" width="21px" height="21px" viewBox="0 0 21 21" enable-background="new 0 0 21 21" xml:space="preserve">
  <g id="icon">
    <path d="M18.7,18.5H2.3c-0.4418,0,-0.8,-0.3582,-0.8,-0.8V3.3c0,-0.4418,0.3582,-0.8,0.8,-0.8h16.4c0.4418,0,0.8,0.3582,0.8,0.8v14.4C19.5,18.1418,19.1418,18.5,18.7,18.5z" fill-rule="evenodd" fill="none" stroke="#fff" stroke-width="1" stroke-miterlimit="10" stroke-linejoin="round"/>
    <path d="M15.5,6.5h4M7.5,12.5v6M13.5,12.5v6M7.5,2.5v2M13.5,2.5v2M15.5,10.5h4M1.5,6.5h4M1.5,10.5h4M1.5,14.5h18" fill="none" stroke="#fff" stroke-width="1" stroke-linecap="round" stroke-miterlimit="10" stroke-linejoin="round"/>
    <rect x="7.5" y="6.5" width="6" height="4" fill="none" stroke="#fff" stroke-width="1" stroke-linecap="round" stroke-miterlimit="10" stroke-linejoin="round"/>
  </g>
</svg>