<svg version="1.1" id="Layer_1" xmlns="http://www.w3.org/2000/svg" xmlns:xlink="http://www.w3.org/1999/xlink" x="0px" y="0px" width="16px" height="16px" viewBox="0 0 16 16" enable-background="new 0 0 16 16" xml:space="preserve">
  <g id="icon">
    <path d="M5.014,16c-2.757,0,-5,-2.243,-5,-5s2.243,-5,5,-5s5,2.243,5,5S7.771,16,5.014,16zM4.741,14.831c0.097,0.007,0.186,0.011,0.272,0.011c0.06,0,0.123,-0.002,0.193,-0.006c0.087,-0.253,0.35,-1.05,0.542,-1.987H4.201C4.392,13.781,4.654,14.578,4.741,14.831zM6.696,12.848c-0.153,0.759,-0.356,1.431,-0.475,1.797c0.916,-0.304,1.69,-0.949,2.157,-1.797H6.696zM1.648,12.848c0.463,0.839,1.227,1.48,2.13,1.788c-0.133,-0.398,-0.332,-1.048,-0.485,-1.788H1.648zM8.729,11.97c0.083,-0.318,0.125,-0.644,0.125,-0.97c0,-0.323,-0.041,-0.646,-0.123,-0.961H6.847c0.039,0.339,0.059,0.66,0.059,0.956c0,0.298,-0.022,0.626,-0.065,0.975H8.729zM5.896,11.97c0.047,-0.364,0.07,-0.703,0.07,-1.009c0,-0.285,-0.019,-0.596,-0.058,-0.923H4.041c-0.038,0.327,-0.058,0.638,-0.058,0.923c0,0.306,0.024,0.645,0.07,1.009H5.896zM3.145,11.97c-0.045,-0.35,-0.067,-0.677,-0.067,-0.975c0,-0.296,0.021,-0.618,0.061,-0.956H1.295c-0.082,0.315,-0.123,0.638,-0.123,0.961c0,0.326,0.042,0.652,0.125,0.97H3.145zM8.384,9.161c-0.464,-0.847,-1.234,-1.492,-2.145,-1.8c0.131,0.4,0.325,1.054,0.47,1.8H8.384zM5.769,9.161c-0.183,-0.923,-0.443,-1.704,-0.546,-1.995c-0.078,-0.005,-0.145,-0.007,-0.21,-0.007c-0.093,0,-0.188,0.004,-0.289,0.012c-0.102,0.29,-0.362,1.071,-0.544,1.99H5.769zM3.281,9.161c0.149,-0.742,0.346,-1.392,0.48,-1.791c-0.899,0.311,-1.658,0.953,-2.117,1.791H3.281z" fill="#217346"/>
    <path d="M15.5,2.5v10.5c0,0.276,-0.224,0.5,-0.5,0.5h-4.546c0.35,-0.761,0.546,-1.607,0.546,-2.5c0,-3.314,-2.686,-6,-6,-6c-0.893,0,-1.739,0.196,-2.5,0.546V2.5H15.5z" fill="#FFFFFF"/>
    <path d="M14.85,0h-11.7C2.515,0,2,0.515,2,1.15V3h14V1.15C16,0.515,15.485,0,14.85,0z" fill="#217346"/>
    <path d="M2,5.805V3h1v2.343C2.651,5.466,2.316,5.622,2,5.805zM15,3l0.001,10h-4.343c-0.124,0.349,-0.279,0.684,-0.462,1H15c0.551,0,1,-0.449,1,-1V3H15z" fill="#217346"/>
    <path d="M4,4.5c0,-0.276,0.224,-0.5,0.5,-0.5h3c0.276,0,0.5,0.224,0.5,0.5s-0.224,0.5,-0.5,0.5H4.5C4.224,5,4,4.776,4,4.5z" fill="#B4B4B5"/>
    <path d="M10.5,5h3c0.276,0,0.5,-0.224,0.5,-0.5s-0.224,-0.5,-0.5,-0.5h-3c-0.276,0,-0.5,0.224,-0.5,0.5S10.224,5,10.5,5z" fill="#B4B4B5"/>
    <path d="M13.5,8h-3c-0.096,0,-0.185,0.028,-0.261,0.075c0.164,0.294,0.305,0.603,0.419,0.925H13.5c0.276,0,0.5,-0.224,0.5,-0.5S13.776,8,13.5,8z" fill="#B4B4B5"/>
    <path d="M13.5,6h-3c-0.276,0,-0.5,0.224,-0.5,0.5s0.224,0.5,0.5,0.5h3c0.276,0,0.5,-0.224,0.5,-0.5S13.776,6,13.5,6z" fill="#B4B4B5"/>
    <path d="M13.5,10h-2.585c0.055,0.325,0.085,0.659,0.085,1h2.5c0.276,0,0.5,-0.224,0.5,-0.5S13.776,10,13.5,10z" fill="#B4B4B5"/>
  </g>
</svg>