<svg version="1.1" id="Layer_1" xmlns="http://www.w3.org/2000/svg" xmlns:xlink="http://www.w3.org/1999/xlink" x="0px" y="0px" width="32px" height="32px" viewBox="0 0 32 32" enable-background="new 0 0 32 32" xml:space="preserve">
  <g id="icon">
    <g>
      <path d="M3.5,6.5v5.352L23.043,28.5H30c0.276,0,0.5,-0.224,0.5,-0.5V6.5H3.5z" fill="#FFFFFF"/>
      <polygon points="6.5,25.5 9.557,25.5 6.5,22.775" fill="#FFFFFF" stroke-linejoin="miter"/>
    </g>
    <path d="M3,6v5.426l1,0.852V7h26l0.001,21h-7.545l1.174,1H30c0.551,0,1,-0.449,1,-1V6H3z" fill="#6D6E71"/>
    <path d="M31,7H3V2.4c0,-0.773,0.627,-1.4,1.4,-1.4h25.2c0.773,0,1.4,0.627,1.4,1.4V7z" fill="#217346"/>
    <path d="M27.6,14H15.5c-0.276,0,-0.5,0.224,-0.5,0.5s0.224,0.5,0.5,0.5h12.1c0.276,0,0.5,-0.224,0.5,-0.5S27.876,14,27.6,14z" fill="#B4B4B5"/>
    <g>
      <rect x="15.5" y="17.5" width="8" height="2" fill="#E6E7E8"/>
      <rect x="19.5" y="13.5" width="2" height="2" fill="#E6E7E8"/>
      <polygon points="18.347,24.5 27.5,24.5 27.5,22.5 16,22.5" fill="#E6E7E8" stroke-linejoin="miter"/>
      <rect x="15.5" y="9.5" width="12" height="2" fill="#E6E7E8"/>
    </g>
    <g>
      <path d="M15.5,20h8c0.276,0,0.5,-0.224,0.5,-0.5v-2c0,-0.276,-0.224,-0.5,-0.5,-0.5h-8c-0.276,0,-0.5,0.224,-0.5,0.5v2C15,19.776,15.224,20,15.5,20zM16,18h7v1h-7V18z" fill="#B4B4B5"/>
      <path d="M27.5,9H15.5c-0.276,0,-0.5,0.224,-0.5,0.5v2c0,0.276,0.224,0.5,0.5,0.5h12c0.276,0,0.5,-0.224,0.5,-0.5V9.5C28,9.224,27.776,9,27.5,9zM27,11H16v-1h11V11z" fill="#B4B4B5"/>
      <path d="M21.5,16c0.276,0,0.5,-0.224,0.5,-0.5v-2c0,-0.276,-0.224,-0.5,-0.5,-0.5h-2c-0.276,0,-0.5,0.224,-0.5,0.5v2c0,0.276,0.224,0.5,0.5,0.5H21.5zM20,14h1v1h-1V14z" fill="#B4B4B5"/>
      <path d="M27.5,22H15.413l1.174,1H27v1h-9.24l1.174,1H27.5c0.276,0,0.5,-0.224,0.5,-0.5v-2C28,22.224,27.776,22,27.5,22z" fill="#B4B4B5"/>
    </g>
    <g>
      <path d="M13,14.5c0,-0.276,-0.224,-0.5,-0.5,-0.5H6.5c-0.127,0,-0.242,0.049,-0.33,0.127L7.195,15H12.5C12.776,15,13,14.776,13,14.5z" fill="#B4B4B5"/>
      <polygon points="6.5,24 7.875,24 6.753,23 6.5,23" fill="#B4B4B5" stroke-linejoin="miter"/>
      <path d="M13,18.5c0,-0.276,-0.224,-0.5,-0.5,-0.5h-1.783l1.174,1H12.5C12.776,19,13,18.776,13,18.5z" fill="#B4B4B5"/>
      <path d="M6.5,11h6c0.276,0,0.5,-0.224,0.5,-0.5s-0.224,-0.5,-0.5,-0.5H6.5c-0.276,0,-0.5,0.224,-0.5,0.5S6.224,11,6.5,11z" fill="#B4B4B5"/>
    </g>
    <polygon points="17.76,24 19,24 19,23 16.587,23" fill="#529FBF" stroke-linejoin="miter" opacity="0.53"/>
    <path d="M1,11.732v18.946c0,0.178,0.144,0.322,0.322,0.322h22.241c0.299,0,0.436,-0.373,0.208,-0.566L1.53,11.487C1.321,11.31,1,11.458,1,11.732zM5.5,20.544L12.182,26.5H5.5V20.544z" fill-rule="evenodd" fill="#EAB765"/>
  </g>
</svg>