<svg version="1.1" id="Layer_1" xmlns="http://www.w3.org/2000/svg" xmlns:xlink="http://www.w3.org/1999/xlink" x="0px" y="0px" width="32px" height="32px" viewBox="0 0 32 32" enable-background="new 0 0 32 32" xml:space="preserve">
  <g id="icon">
    <path d="M25.735,32H0V9.177L25.735,32zM2,30h18.465L2,13.624V30zM15.26,28H4v-9.914L15.26,28zM6,26h3.962L6,22.512V26z" fill="#fff"/>
    <path d="M16,20.693L19.728,24H28v-6H16V20.693zM18,20h8v2h-8V20zM8,12h6v2H8.453L8,13.598V12zM4,0v10.051l2,1.774V8h24v18h-8.016l2.255,2H32V0H4zM30,6H6V2h24V6zM28,10H16v6h12V10zM26,14h-8v-2h8V14z" fill="#fff"/>
  </g>
</svg>