<svg version="1.1" id="Layer_1" xmlns="http://www.w3.org/2000/svg" xmlns:xlink="http://www.w3.org/1999/xlink" x="0px" y="0px" width="32px" height="32px" viewBox="0 0 32 32" enable-background="new 0 0 32 32" xml:space="preserve">
  <g id="icon">
    <path d="M9.02,30.987c-4.407,0,-7.993,-3.586,-7.993,-7.993S4.613,15,9.02,15c4.407,0,7.993,3.586,7.993,7.993S13.428,30.987,9.02,30.987zM7.619,26c0.312,1.527,0.749,2.847,0.876,3.216l0.019,0.056l0.059,0.004c0.159,0.012,0.305,0.017,0.447,0.017c0.098,0,0.202,-0.003,0.318,-0.009l0.06,-0.003l0.02,-0.057c0.127,-0.368,0.565,-1.687,0.879,-3.223l0.022,-0.108H7.597L7.619,26zM11.653,25.964c-0.251,1.242,-0.587,2.347,-0.766,2.895l-0.055,0.169l0.169,-0.056c1.511,-0.502,2.767,-1.549,3.538,-2.947l0.073,-0.133h-2.945L11.653,25.964zM3.501,26.025c0.763,1.383,2.003,2.424,3.493,2.932l0.172,0.059l-0.058,-0.172c-0.222,-0.662,-0.537,-1.7,-0.782,-2.88l-0.015,-0.072H3.428L3.501,26.025zM11.895,21.45c0.063,0.544,0.095,1.06,0.095,1.535c0,0.478,-0.035,1.005,-0.105,1.566l-0.013,0.101h3.223l0.018,-0.067c0.136,-0.521,0.206,-1.056,0.206,-1.592c0,-0.53,-0.068,-1.06,-0.202,-1.576L15.1,21.35h-3.217L11.895,21.45zM7.359,21.429c-0.062,0.532,-0.094,1.038,-0.094,1.503c0,0.498,0.038,1.051,0.114,1.642l0.01,0.078h3.136l0.01,-0.078c0.076,-0.592,0.114,-1.144,0.114,-1.642c0,-0.464,-0.032,-0.97,-0.094,-1.503l-0.009,-0.079H7.369L7.359,21.429zM2.922,21.417c-0.134,0.516,-0.202,1.047,-0.202,1.577c0,0.535,0.069,1.07,0.206,1.591l0.018,0.067h3.157l-0.013,-0.101c-0.072,-0.561,-0.108,-1.088,-0.108,-1.566c0,-0.475,0.033,-0.991,0.098,-1.535l0.012,-0.1H2.94L2.922,21.417zM10.915,17.137c0.217,0.666,0.525,1.71,0.757,2.9l0.014,0.073h2.933l-0.073,-0.133c-0.765,-1.396,-2.014,-2.444,-3.518,-2.952l-0.17,-0.057L10.915,17.137zM9.02,16.694c-0.152,0,-0.307,0.006,-0.474,0.019l-0.058,0.004l-0.019,0.055c-0.167,0.474,-0.587,1.739,-0.883,3.23l-0.021,0.107h2.786l-0.021,-0.107c-0.296,-1.498,-0.718,-2.763,-0.885,-3.238l-0.02,-0.056l-0.06,-0.004C9.239,16.698,9.126,16.694,9.02,16.694zM6.965,17.04c-1.483,0.514,-2.716,1.557,-3.472,2.937l-0.073,0.133h2.872l0.014,-0.072c0.237,-1.183,0.551,-2.222,0.773,-2.884l0.058,-0.173L6.965,17.04z" fill="#217346"/>
    <path d="M30.5,6.5v19.5c0,0.276,-0.224,0.5,-0.5,0.5H17.294c0.455,-1.076,0.706,-2.259,0.706,-3.5c0,-4.971,-4.029,-9,-9,-9c-1.487,0,-2.89,0.361,-4.126,1H4.5V6.5H30.5z" fill="#FFFFFF"/>
    <path d="M29.6,2H5.4c-0.773,0,-1.4,0.627,-1.4,1.4v3.6h27V3.4C31,2.627,30.373,2,29.6,2z" fill="#217346"/>
    <path d="M4,15.516V7h1v7.936C4.653,15.109,4.319,15.302,4,15.516zM30,7l0.001,19H17.487c-0.121,0.343,-0.263,0.677,-0.423,1H30c0.551,0,1,-0.449,1,-1V7H30z" fill="#217346"/>
    <path d="M20,22.5c0,0.276,-0.224,0.5,-0.5,0.5h-1.5c0,-0.338,-0.019,-0.672,-0.056,-1H19.5C19.776,22,20,22.224,20,22.5z" fill="#B4B4B5"/>
    <path d="M19.5,20h-2.013c0.115,0.325,0.212,0.659,0.289,1H19.5c0.276,0,0.5,-0.224,0.5,-0.5S19.776,20,19.5,20z" fill="#B4B4B5"/>
    <path d="M8.5,13h4c0.276,0,0.5,-0.224,0.5,-0.5s-0.224,-0.5,-0.5,-0.5H8.5c-0.276,0,-0.5,0.224,-0.5,0.5S8.224,13,8.5,13z" fill="#B4B4B5"/>
    <path d="M19.5,18h-3.016c0.214,0.319,0.408,0.653,0.58,1H19.5c0.276,0,0.5,-0.224,0.5,-0.5S19.776,18,19.5,18z" fill="#B4B4B5"/>
    <path d="M22.5,11h4c0.276,0,0.5,-0.224,0.5,-0.5s-0.224,-0.5,-0.5,-0.5h-4c-0.276,0,-0.5,0.224,-0.5,0.5S22.224,11,22.5,11z" fill="#B4B4B5"/>
    <path d="M19.5,16h-4.844c0.377,0.305,0.728,0.639,1.051,1H19.5c0.276,0,0.5,-0.224,0.5,-0.5S19.776,16,19.5,16z" fill="#B4B4B5"/>
    <path d="M8.5,11h4c0.276,0,0.5,-0.224,0.5,-0.5s-0.224,-0.5,-0.5,-0.5H8.5c-0.276,0,-0.5,0.224,-0.5,0.5S8.224,11,8.5,11z" fill="#B4B4B5"/>
    <path d="M8.358,14.023C8.57,14.008,8.784,14,9,14h-0.5C8.45,14,8.403,14.01,8.358,14.023z" fill="#B4B4B5"/>
    <path d="M26.5,14h-4c-0.276,0,-0.5,0.224,-0.5,0.5s0.224,0.5,0.5,0.5h4c0.276,0,0.5,-0.224,0.5,-0.5S26.776,14,26.5,14z" fill="#B4B4B5"/>
    <path d="M26.5,18h-4c-0.276,0,-0.5,0.224,-0.5,0.5s0.224,0.5,0.5,0.5h4c0.276,0,0.5,-0.224,0.5,-0.5S26.776,18,26.5,18z" fill="#B4B4B5"/>
    <path d="M26.5,16h-4c-0.276,0,-0.5,0.224,-0.5,0.5s0.224,0.5,0.5,0.5h4c0.276,0,0.5,-0.224,0.5,-0.5S26.776,16,26.5,16z" fill="#B4B4B5"/>
    <path d="M26.5,12h-4c-0.276,0,-0.5,0.224,-0.5,0.5s0.224,0.5,0.5,0.5h4c0.276,0,0.5,-0.224,0.5,-0.5S26.776,12,26.5,12z" fill="#B4B4B5"/>
    <path d="M19.5,12h-4c-0.276,0,-0.5,0.224,-0.5,0.5s0.224,0.5,0.5,0.5h4c0.276,0,0.5,-0.224,0.5,-0.5S19.776,12,19.5,12z" fill="#B4B4B5"/>
    <path d="M19.5,10h-4c-0.276,0,-0.5,0.224,-0.5,0.5s0.224,0.5,0.5,0.5h4c0.276,0,0.5,-0.224,0.5,-0.5S19.776,10,19.5,10z" fill="#B4B4B5"/>
    <path d="M26.5,20h-4c-0.276,0,-0.5,0.224,-0.5,0.5s0.224,0.5,0.5,0.5h4c0.276,0,0.5,-0.224,0.5,-0.5S26.776,20,26.5,20z" fill="#B4B4B5"/>
    <path d="M19.5,14h-4c-0.276,0,-0.5,0.224,-0.5,0.5s0.224,0.5,0.5,0.5h4c0.276,0,0.5,-0.224,0.5,-0.5S19.776,14,19.5,14z" fill="#B4B4B5"/>
    <path d="M26.5,22h-4c-0.276,0,-0.5,0.224,-0.5,0.5s0.224,0.5,0.5,0.5h4c0.276,0,0.5,-0.224,0.5,-0.5S26.776,22,26.5,22z" fill="#B4B4B5"/>
    <path d="M12.5,14h-2.5v0.055c1.008,0.112,1.965,0.389,2.845,0.806c0.095,-0.091,0.155,-0.219,0.155,-0.361C13,14.224,12.776,14,12.5,14z" fill="#B4B4B5"/>
  </g>
</svg>